<svg width="20" height="20" viewBox="0 0 20 20" fill="none" xmlns="http://www.w3.org/2000/svg">
<path d="M10.95 0.02V2.02C15.34 2.56 18.45 6.55 17.91 10.94C17.45 14.58 14.59 17.47 10.95 17.9V19.9C16.45 19.35 20.45 14.47 19.9 8.97C19.45 4.22 15.68 0.47 10.95 0V0.02ZM3.62 17.71C5.13 18.97 6.99 19.76 8.95 19.97V17.97C7.53 17.79 6.18 17.22 5.05 16.34L3.62 17.71ZM5.05 3.71C6.17 2.81 7.52 2.23 8.95 2.03V0.03C7 0.22 5.14 0.97 3.62 2.23L5.05 3.71ZM3.64 5.07L2.21 3.64C0.95 5.16 0.2 7.01 0 8.97H2C2.19 7.55 2.75 6.2 3.64 5.07ZM2.01 10.97H0.00999999C0.21 12.93 0.98 14.78 2.22 16.3L3.64 14.87C2.76 13.74 2.19 12.39 2.01 10.97ZM7.95 14.47L13.95 9.97L7.99 5.5L7.95 5.47V14.47Z" fill="black"/>
</svg>
