<svg width="25" height="24" viewBox="0 0 25 24" fill="none" xmlns="http://www.w3.org/2000/svg">
<path fill-rule="evenodd" clip-rule="evenodd" d="M3.82698 4.63803C3.5 5.27976 3.5 6.11984 3.5 7.8V16.2C3.5 17.8802 3.5 18.7202 3.82698 19.362C4.1146 19.9265 4.57354 20.3854 5.13803 20.673C5.77976 21 6.61984 21 8.3 21H16.7C18.3802 21 19.2202 21 19.862 20.673C20.4265 20.3854 20.8854 19.9265 21.173 19.362C21.5 18.7202 21.5 17.8802 21.5 16.2V7.8C21.5 6.11984 21.5 5.27976 21.173 4.63803C20.8854 4.07354 20.4265 3.6146 19.862 3.32698C19.2202 3 18.3802 3 16.7 3H8.3C6.61984 3 5.77976 3 5.13803 3.32698C4.57354 3.6146 4.1146 4.07354 3.82698 4.63803ZM15.9532 11.3271L11.2326 8.29239C10.8311 8.03429 10.6304 7.90525 10.4644 7.9171C10.3197 7.92744 10.1867 8.00007 10.0997 8.11618C10 8.2494 10 8.48805 10 8.96533V15.0347C10 15.512 10 15.7506 10.0997 15.8838C10.1867 15.9999 10.3197 16.0726 10.4644 16.0829C10.6304 16.0948 10.8311 15.9657 11.2326 15.7076L15.9532 12.6729C16.3016 12.449 16.4758 12.337 16.5359 12.1946C16.5885 12.0702 16.5885 11.9298 16.5359 11.8054C16.4758 11.663 16.3016 11.551 15.9532 11.3271Z" fill="#161616"/>
</svg>
