<svg width="25" height="27" viewBox="0 0 25 27" fill="none" xmlns="http://www.w3.org/2000/svg">
<path fill-rule="evenodd" clip-rule="evenodd" d="M12.773 3.22074C12.6955 3.15883 12.5992 3.12511 12.5 3.12511C12.4008 3.12511 12.3045 3.15883 12.227 3.22074L3.0395 10.5707C2.98803 10.6118 2.94651 10.664 2.91802 10.7234C2.88954 10.7828 2.87483 10.8479 2.875 10.9137V23.197C2.875 23.4385 3.071 23.6345 3.3125 23.6345H8.125V14.447C8.125 14.0989 8.26328 13.7651 8.50942 13.5189C8.75556 13.2728 9.08941 13.1345 9.4375 13.1345H15.5625C15.9106 13.1345 16.2445 13.2728 16.4905 13.5189C16.7367 13.7651 16.875 14.0989 16.875 14.447V23.6345H21.6875C21.8035 23.6345 21.9148 23.5885 21.9969 23.5064C22.079 23.4243 22.125 23.313 22.125 23.197V10.912C22.1248 10.8464 22.1101 10.7817 22.0816 10.7226C22.0531 10.6636 22.0118 10.6117 21.9605 10.5707L12.773 3.22074ZM10.5855 1.17149C11.1286 0.736821 11.8035 0.5 12.4991 0.5C13.1947 0.5 13.8697 0.736821 14.4128 1.17149L23.6003 8.52149C24.3265 9.10248 24.75 9.98274 24.75 10.9137V23.197C24.75 24.0092 24.4273 24.7881 23.853 25.3624C23.2786 25.9368 22.4997 26.2595 21.6875 26.2595H15.5625C15.2144 26.2595 14.8806 26.1212 14.6344 25.875C14.3883 25.629 14.25 25.2951 14.25 24.947V15.7595H10.75V24.947C10.75 25.2951 10.6117 25.629 10.3656 25.875C10.1194 26.1212 9.78559 26.2595 9.4375 26.2595H3.3125C2.50027 26.2595 1.72131 25.9368 1.14698 25.3624C0.572648 24.7881 0.25 24.0092 0.25 23.197V10.912C0.25 9.98274 0.6735 9.10248 1.39975 8.52149L10.5872 1.17149H10.5855Z" fill="#00ACEE"/>
</svg>
