<svg width="25" height="24" viewBox="0 0 25 24" fill="none" xmlns="http://www.w3.org/2000/svg">
<path d="M10 8.96533C10 8.48805 10 8.24941 10.0997 8.11618C10.1867 8.00007 10.3197 7.92744 10.4644 7.9171C10.6304 7.90525 10.8311 8.03429 11.2326 8.29239L15.9532 11.3271C16.3016 11.551 16.4758 11.663 16.5359 11.8054C16.5885 11.9298 16.5885 12.0702 16.5359 12.1946C16.4758 12.337 16.3016 12.449 15.9532 12.6729L11.2326 15.7076C10.8311 15.9657 10.6304 16.0948 10.4644 16.0829C10.3197 16.0726 10.1867 15.9999 10.0997 15.8838C10 15.7506 10 15.512 10 15.0347V8.96533Z" stroke="#161616" stroke-linecap="round" stroke-linejoin="round"/>
<path d="M3.5 7.8C3.5 6.11984 3.5 5.27976 3.82698 4.63803C4.1146 4.07354 4.57354 3.6146 5.13803 3.32698C5.77976 3 6.61984 3 8.3 3H16.7C18.3802 3 19.2202 3 19.862 3.32698C20.4265 3.6146 20.8854 4.07354 21.173 4.63803C21.5 5.27976 21.5 6.11984 21.5 7.8V16.2C21.5 17.8802 21.5 18.7202 21.173 19.362C20.8854 19.9265 20.4265 20.3854 19.862 20.673C19.2202 21 18.3802 21 16.7 21H8.3C6.61984 21 5.77976 21 5.13803 20.673C4.57354 20.3854 4.1146 19.9265 3.82698 19.362C3.5 18.7202 3.5 17.8802 3.5 16.2V7.8Z" stroke="#161616" stroke-linecap="round" stroke-linejoin="round"/>
</svg>
