<svg width="25" height="24" viewBox="0 0 25 24" fill="none" xmlns="http://www.w3.org/2000/svg">
<path d="M12.5 15C9.3299 15 6.51077 16.5306 4.71597 18.906C4.32968 19.4172 4.13653 19.6728 4.14285 20.0183C4.14773 20.2852 4.31533 20.6219 4.52534 20.7867C4.79716 21 5.17384 21 5.9272 21H19.0727C19.8261 21 20.2028 21 20.4746 20.7867C20.6846 20.6219 20.8522 20.2852 20.8571 20.0183C20.8634 19.6728 20.6703 19.4172 20.284 18.906C18.4892 16.5306 15.67 15 12.5 15Z" stroke="black" stroke-linecap="round" stroke-linejoin="round"/>
<path d="M12.5 12C14.9853 12 17 9.98528 17 7.5C17 5.01472 14.9853 3 12.5 3C10.0147 3 7.99997 5.01472 7.99997 7.5C7.99997 9.98528 10.0147 12 12.5 12Z" stroke="black" stroke-linecap="round" stroke-linejoin="round"/>
</svg>
