<svg width="119" height="27" viewBox="0 0 119 27" fill="none" xmlns="http://www.w3.org/2000/svg">
<path d="M41.5642 11.3817C41.492 11.1378 41.3905 10.9222 41.2599 10.7351C41.1292 10.5447 40.9693 10.3843 40.7801 10.254C40.5944 10.1203 40.3812 10.0184 40.1404 9.94822C39.9031 9.87805 39.6401 9.84296 39.3512 9.84296C38.8112 9.84296 38.3366 9.97328 37.9274 10.2339C37.5216 10.4945 37.2052 10.8738 36.9782 11.3717C36.7512 11.8662 36.6378 12.471 36.6378 13.1861C36.6378 13.9012 36.7495 14.5093 36.9731 15.0105C37.1966 15.5117 37.513 15.8943 37.9222 16.1583C38.3315 16.4189 38.8147 16.5492 39.3718 16.5492C39.8774 16.5492 40.309 16.4624 40.6666 16.2886C41.0277 16.1115 41.3028 15.8626 41.492 15.5418C41.6846 15.221 41.7809 14.8418 41.7809 14.404L42.2348 14.4692H39.5111V12.8352H43.932V14.1284C43.932 15.0306 43.736 15.8058 43.3439 16.454C42.9519 17.0989 42.4119 17.5968 41.7241 17.9476C41.0363 18.2952 40.2488 18.4689 39.3615 18.4689C38.371 18.4689 37.501 18.2567 36.7512 17.8324C36.0015 17.4047 35.4169 16.7982 34.9973 16.0129C34.5812 15.2244 34.3731 14.2888 34.3731 13.2061C34.3731 12.3741 34.4969 11.6323 34.7445 10.9807C34.9956 10.3258 35.3464 9.77112 35.7969 9.31668C36.2474 8.86224 36.7719 8.5164 37.3703 8.27916C37.9687 8.04192 38.6169 7.9233 39.3151 7.9233C39.9135 7.9233 40.4706 8.0085 40.9865 8.17892C41.5023 8.34599 41.9597 8.58323 42.3586 8.89065C42.761 9.19806 43.0894 9.56395 43.3439 9.98831C43.5984 10.4093 43.7618 10.8738 43.834 11.3817H41.5642Z" fill="black"/>
<path d="M49.1486 18.4789C48.3473 18.4789 47.6544 18.3135 47.0697 17.9827C46.4885 17.6486 46.0397 17.1841 45.7233 16.5893C45.4069 15.9912 45.2487 15.2979 45.2487 14.5093C45.2487 13.714 45.4069 13.019 45.7233 12.4242C46.0397 11.8261 46.4885 11.3616 47.0697 11.0308C47.6544 10.6967 48.3473 10.5296 49.1486 10.5296C49.95 10.5296 50.6412 10.6967 51.2224 11.0308C51.807 11.3616 52.2576 11.8261 52.574 12.4242C52.8904 13.019 53.0486 13.714 53.0486 14.5093C53.0486 15.2979 52.8904 15.9912 52.574 16.5893C52.2576 17.1841 51.807 17.6486 51.2224 17.9827C50.6412 18.3135 49.95 18.4789 49.1486 18.4789ZM49.159 16.8249C49.5235 16.8249 49.8279 16.7247 50.072 16.5242C50.3162 16.3204 50.5002 16.043 50.624 15.6922C50.7513 15.3413 50.8149 14.942 50.8149 14.4943C50.8149 14.0465 50.7513 13.6472 50.624 13.2963C50.5002 12.9455 50.3162 12.6682 50.072 12.4643C49.8279 12.2605 49.5235 12.1586 49.159 12.1586C48.791 12.1586 48.4815 12.2605 48.2304 12.4643C47.9828 12.6682 47.7954 12.9455 47.6681 13.2963C47.5443 13.6472 47.4824 14.0465 47.4824 14.4943C47.4824 14.942 47.5443 15.3413 47.6681 15.6922C47.7954 16.043 47.9828 16.3204 48.2304 16.5242C48.4815 16.7247 48.791 16.8249 49.159 16.8249Z" fill="black"/>
<path d="M54.4362 18.3286V17.0555L58.3155 12.3891V12.334H54.5703V10.6299H60.9618V12.0182L57.3199 16.5693V16.6244H61.096V18.3286H54.4362Z" fill="black"/>
<path d="M64.974 8.06364V18.3286H62.7764V8.06364H64.974Z" fill="black"/>
<path d="M70.3453 18.4789C69.5303 18.4789 68.8287 18.3185 68.2406 17.9978C67.656 17.6736 67.2055 17.2159 66.8891 16.6244C66.5727 16.0297 66.4145 15.3263 66.4145 14.5143C66.4145 13.7224 66.5727 13.0274 66.8891 12.4292C67.2055 11.8311 67.6508 11.365 68.2252 11.0308C68.8029 10.6967 69.4804 10.5296 70.2577 10.5296C70.7804 10.5296 71.267 10.6115 71.7175 10.7752C72.1715 10.9356 72.567 11.1779 72.904 11.502C73.2445 11.8261 73.5093 12.2338 73.6984 12.725C73.8876 13.2128 73.9822 13.7842 73.9822 14.4391V15.0255H67.2915V13.7023H71.9136C71.9136 13.3949 71.8448 13.1226 71.7072 12.8853C71.5696 12.6481 71.3788 12.4627 71.1346 12.329C70.8939 12.192 70.6136 12.1235 70.2938 12.1235C69.9602 12.1235 69.6644 12.1987 69.4065 12.349C69.152 12.4961 68.9525 12.6949 68.8081 12.9455C68.6636 13.1928 68.5897 13.4684 68.5863 13.7725V15.0306C68.5863 15.4115 68.6585 15.7406 68.8029 16.018C68.9508 16.2953 69.1589 16.5092 69.4271 16.6595C69.6954 16.8099 70.0135 16.8851 70.3815 16.8851C70.6256 16.8851 70.8492 16.8517 71.0521 16.7848C71.255 16.718 71.4287 16.6178 71.5731 16.4841C71.7175 16.3504 71.8276 16.1867 71.9032 15.9929L73.9357 16.1232C73.8326 16.5977 73.6211 17.012 73.3012 17.3662C72.9848 17.7171 72.5756 17.9911 72.0735 18.1882C71.5748 18.382 70.9988 18.4789 70.3453 18.4789Z" fill="black"/>
<path d="M80.7283 8.06364L83.2818 15.8626H83.3798L85.9385 8.06364H88.4146L84.7727 18.3286H81.8942L78.247 8.06364H80.7283Z" fill="black"/>
<path d="M89.645 18.3286V10.6299H91.8425V18.3286H89.645ZM90.7489 9.63746C90.4222 9.63746 90.1419 9.5322 89.9081 9.32169C89.6776 9.10784 89.5624 8.85222 89.5624 8.55483C89.5624 8.26078 89.6776 8.0085 89.9081 7.79799C90.1419 7.58414 90.4222 7.47721 90.7489 7.47721C91.0756 7.47721 91.3542 7.58414 91.5846 7.79799C91.8185 8.0085 91.9354 8.26078 91.9354 8.55483C91.9354 8.85222 91.8185 9.10784 91.5846 9.32169C91.3542 9.5322 91.0756 9.63746 90.7489 9.63746Z" fill="black"/>
<path d="M96.5227 18.4539C95.9208 18.4539 95.3757 18.3035 94.8874 18.0028C94.4025 17.6987 94.0173 17.2526 93.7319 16.6645C93.4499 16.0731 93.3089 15.348 93.3089 14.4892C93.3089 13.6071 93.455 12.8737 93.7473 12.2889C94.0397 11.7008 94.4283 11.2614 94.9132 10.9707C95.4015 10.6767 95.9363 10.5296 96.5175 10.5296C96.9612 10.5296 97.3308 10.6031 97.6266 10.7502C97.9258 10.8938 98.1665 11.0743 98.3488 11.2915C98.5345 11.5053 98.6755 11.7158 98.7718 11.923H98.8389V8.06364H101.031V18.3286H98.8647V17.0956H98.7718C98.6687 17.3094 98.5225 17.5216 98.3334 17.7321C98.1476 17.9393 97.9052 18.1114 97.606 18.2484C97.3102 18.3854 96.9491 18.4539 96.5227 18.4539ZM97.2191 16.7547C97.5733 16.7547 97.8725 16.6612 98.1167 16.4741C98.3643 16.2836 98.5534 16.018 98.6841 15.6771C98.8182 15.3363 98.8853 14.937 98.8853 14.4792C98.8853 14.0214 98.82 13.6238 98.6893 13.2863C98.5586 12.9488 98.3694 12.6882 98.1218 12.5044C97.8742 12.3206 97.5733 12.2288 97.2191 12.2288C96.858 12.2288 96.5536 12.324 96.306 12.5144C96.0584 12.7049 95.871 12.9689 95.7437 13.3064C95.6165 13.6439 95.5529 14.0348 95.5529 14.4792C95.5529 14.927 95.6165 15.3229 95.7437 15.6671C95.8744 16.0079 96.0618 16.2753 96.306 16.4691C96.5536 16.6595 96.858 16.7547 97.2191 16.7547Z" fill="black"/>
<path d="M106.449 18.4789C105.634 18.4789 104.932 18.3185 104.344 17.9978C103.76 17.6736 103.309 17.2159 102.993 16.6244C102.676 16.0297 102.518 15.3263 102.518 14.5143C102.518 13.7224 102.676 13.0274 102.993 12.4292C103.309 11.8311 103.755 11.365 104.329 11.0308C104.907 10.6967 105.584 10.5296 106.361 10.5296C106.884 10.5296 107.371 10.6115 107.821 10.7752C108.275 10.9356 108.671 11.1779 109.008 11.502C109.348 11.8261 109.613 12.2338 109.802 12.725C109.991 13.2128 110.086 13.7842 110.086 14.4391V15.0255H103.395V13.7023H108.017C108.017 13.3949 107.949 13.1226 107.811 12.8853C107.673 12.6481 107.483 12.4627 107.238 12.329C106.998 12.192 106.717 12.1235 106.398 12.1235C106.064 12.1235 105.768 12.1987 105.51 12.349C105.256 12.4961 105.056 12.6949 104.912 12.9455C104.767 13.1928 104.693 13.4684 104.69 13.7725V15.0306C104.69 15.4115 104.762 15.7406 104.907 16.018C105.055 16.2953 105.263 16.5092 105.531 16.6595C105.799 16.8099 106.117 16.8851 106.485 16.8851C106.729 16.8851 106.953 16.8517 107.156 16.7848C107.359 16.718 107.532 16.6178 107.677 16.4841C107.821 16.3504 107.931 16.1867 108.007 15.9929L110.04 16.1232C109.936 16.5977 109.725 17.012 109.405 17.3662C109.089 17.7171 108.679 17.9911 108.177 18.1882C107.679 18.382 107.103 18.4789 106.449 18.4789Z" fill="black"/>
<path d="M115.1 18.4789C114.299 18.4789 113.606 18.3135 113.021 17.9827C112.44 17.6486 111.991 17.1841 111.675 16.5893C111.358 15.9912 111.2 15.2979 111.2 14.5093C111.2 13.714 111.358 13.019 111.675 12.4242C111.991 11.8261 112.44 11.3616 113.021 11.0308C113.606 10.6967 114.299 10.5296 115.1 10.5296C115.901 10.5296 116.593 10.6967 117.174 11.0308C117.758 11.3616 118.209 11.8261 118.525 12.4242C118.842 13.019 119 13.714 119 14.5093C119 15.2979 118.842 15.9912 118.525 16.5893C118.209 17.1841 117.758 17.6486 117.174 17.9827C116.593 18.3135 115.901 18.4789 115.1 18.4789ZM115.11 16.8249C115.475 16.8249 115.779 16.7247 116.023 16.5242C116.268 16.3204 116.452 16.043 116.575 15.6922C116.703 15.3413 116.766 14.942 116.766 14.4943C116.766 14.0465 116.703 13.6472 116.575 13.2963C116.452 12.9455 116.268 12.6682 116.023 12.4643C115.779 12.2605 115.475 12.1586 115.11 12.1586C114.742 12.1586 114.433 12.2605 114.182 12.4643C113.934 12.6682 113.747 12.9455 113.62 13.2963C113.496 13.6472 113.434 14.0465 113.434 14.4943C113.434 14.942 113.496 15.3413 113.62 15.6922C113.747 16.043 113.934 16.3204 114.182 16.5242C114.433 16.7247 114.742 16.8249 115.11 16.8249Z" fill="black"/>
<path d="M26.7596 13.5C26.7596 20.6797 20.7692 26.5 13.3798 26.5C5.99033 26.5 0 20.6797 0 13.5C0 6.3203 5.99033 0.5 13.3798 0.5C20.7692 0.5 26.7596 6.3203 26.7596 13.5Z" fill="#00ACEE"/>
<path d="M18.8042 13.1783C19.0591 13.3213 19.0591 13.6787 18.8042 13.8216L10.9543 18.2251C10.6995 18.3681 10.3809 18.1894 10.3809 17.9035L10.3809 9.09647C10.3809 8.81054 10.6995 8.63184 10.9543 8.7748L18.8042 13.1783Z" fill="#F6F6F6"/>
<path d="M26.7596 13.5C26.7596 20.6797 20.7692 26.5 13.3798 26.5C5.99033 26.5 0 20.6797 0 13.5C0 6.3203 5.99033 0.5 13.3798 0.5C20.7692 0.5 26.7596 6.3203 26.7596 13.5Z" fill="#00ACEE"/>
<path d="M18.8042 13.1783C19.0591 13.3213 19.0591 13.6787 18.8042 13.8216L10.9543 18.2251C10.6995 18.3681 10.3809 18.1894 10.3809 17.9035L10.3809 9.09647C10.3809 8.81054 10.6995 8.63184 10.9543 8.7748L18.8042 13.1783Z" fill="#F6F6F6"/>
<path d="M26.7596 13.5C26.7596 20.6797 20.7692 26.5 13.3798 26.5C5.99033 26.5 0 20.6797 0 13.5C0 6.3203 5.99033 0.5 13.3798 0.5C20.7692 0.5 26.7596 6.3203 26.7596 13.5Z" fill="#00ACEE"/>
<path d="M18.8042 13.1783C19.0591 13.3213 19.0591 13.6787 18.8042 13.8216L10.9543 18.2251C10.6995 18.3681 10.3809 18.1894 10.3809 17.9035L10.3809 9.09647C10.3809 8.81054 10.6995 8.63184 10.9543 8.7748L18.8042 13.1783Z" fill="#F6F6F6"/>
</svg>
