<svg width="29" height="29" viewBox="0 0 29 29" fill="none" xmlns="http://www.w3.org/2000/svg">
<path d="M6.04166 12.0834H8.45833C10.875 12.0834 12.0833 10.8751 12.0833 8.45841V6.04175C12.0833 3.62508 10.875 2.41675 8.45833 2.41675H6.04166C3.625 2.41675 2.41666 3.62508 2.41666 6.04175V8.45841C2.41666 10.8751 3.625 12.0834 6.04166 12.0834Z" stroke="#2B2B2B" stroke-width="2.5" stroke-miterlimit="10" stroke-linecap="round" stroke-linejoin="round"/>
<path d="M20.5417 12.0834H22.9583C25.375 12.0834 26.5833 10.8751 26.5833 8.45841V6.04175C26.5833 3.62508 25.375 2.41675 22.9583 2.41675H20.5417C18.125 2.41675 16.9167 3.62508 16.9167 6.04175V8.45841C16.9167 10.8751 18.125 12.0834 20.5417 12.0834Z" stroke="#2B2B2B" stroke-width="2.5" stroke-miterlimit="10" stroke-linecap="round" stroke-linejoin="round"/>
<path d="M20.5417 26.5834H22.9583C25.375 26.5834 26.5833 25.3751 26.5833 22.9584V20.5417C26.5833 18.1251 25.375 16.9167 22.9583 16.9167H20.5417C18.125 16.9167 16.9167 18.1251 16.9167 20.5417V22.9584C16.9167 25.3751 18.125 26.5834 20.5417 26.5834Z" stroke="#2B2B2B" stroke-width="2.5" stroke-miterlimit="10" stroke-linecap="round" stroke-linejoin="round"/>
<path d="M6.04166 26.5834H8.45833C10.875 26.5834 12.0833 25.3751 12.0833 22.9584V20.5417C12.0833 18.1251 10.875 16.9167 8.45833 16.9167H6.04166C3.625 16.9167 2.41666 18.1251 2.41666 20.5417V22.9584C2.41666 25.3751 3.625 26.5834 6.04166 26.5834Z" stroke="#2B2B2B" stroke-width="2.5" stroke-miterlimit="10" stroke-linecap="round" stroke-linejoin="round"/>
</svg>
