<svg width="23" height="23" viewBox="0 0 23 23" fill="none" xmlns="http://www.w3.org/2000/svg">
<path d="M12.5 2.875L12.2305 2.9873L7.91797 4.7168L7.46875 4.89648V9.72559L3.58301 11.4102L3.15625 11.6123V17.4072L3.51562 17.6318L7.82812 20.0352L8.16504 20.2148L8.50195 20.0576L12.5 18.0586L16.498 20.0576L16.835 20.2148L17.1719 20.0352L21.4844 17.6318L21.8438 17.4072V11.6123L21.417 11.4102L17.5312 9.72559V4.89648L17.082 4.7168L12.7695 2.9873L12.5 2.875ZM12.5 4.44727L14.8584 5.36816L12.5 6.28906L10.1416 5.36816L12.5 4.44727ZM8.90625 6.42383L11.7812 7.52441V11.0283L8.90625 9.74805V6.42383ZM16.0938 6.42383V9.74805L13.2188 11.0283V7.52441L16.0938 6.42383ZM8.1875 11.0059L10.793 12.1514L8.1875 13.4316L5.58203 12.1289L8.1875 11.0059ZM16.8125 11.0059L19.418 12.1289L16.8125 13.4316L14.207 12.1514L15.0156 11.792L16.8125 11.0059ZM4.59375 13.2295L7.46875 14.667V18.1934L4.59375 16.5762V13.2295ZM20.4062 13.2295V16.5762L17.5312 18.1934V14.667L20.4062 13.2295ZM11.7812 13.2744V16.8008L8.90625 18.2383V14.667L11.7812 13.2744ZM13.2188 13.2744L16.0938 14.667V18.2383L13.2188 16.8008V13.2744Z" fill="#787878"/>
</svg>
