<svg width="16" height="16" viewBox="0 0 16 16" fill="none" xmlns="http://www.w3.org/2000/svg">
<g clip-path="url(#clip0_138_3726)">
<path d="M14.6667 8.66671V11.3334C14.6667 13.6667 13.3333 14.6667 11.3333 14.6667H4.66667C2.66667 14.6667 1.33333 13.6667 1.33333 11.3334V8.66671C1.33333 6.90004 2.1 5.90006 3.33333 5.52006C3.73333 5.39339 4.18 5.33337 4.66667 5.33337H11.3333C11.82 5.33337 12.2667 5.39339 12.6667 5.52006C13.9 5.90006 14.6667 6.90004 14.6667 8.66671Z" stroke="#292D32" stroke-width="1.5" stroke-miterlimit="10" stroke-linecap="round" stroke-linejoin="round"/>
<path d="M12.6667 4.66671V5.52006C12.2667 5.39339 11.82 5.33337 11.3333 5.33337H4.66667C4.18 5.33337 3.73333 5.39339 3.33333 5.52006V4.66671C3.33333 3.93337 3.93333 3.33337 4.66667 3.33337H11.3333C12.0667 3.33337 12.6667 3.93337 12.6667 4.66671Z" stroke="#292D32" stroke-width="1.5" stroke-miterlimit="10" stroke-linecap="round" stroke-linejoin="round"/>
<path d="M10.6667 2.34005V3.33337H5.33333V2.34005C5.33333 1.78671 5.78667 1.33337 6.34001 1.33337H9.65999C10.2133 1.33337 10.6667 1.78671 10.6667 2.34005Z" stroke="#292D32" stroke-width="1.5" stroke-miterlimit="10" stroke-linecap="round" stroke-linejoin="round"/>
</g>
<defs>
<clipPath id="clip0_138_3726">
<rect width="16" height="16" fill="white"/>
</clipPath>
</defs>
</svg>
