<svg width="33" height="33" viewBox="0 0 33 33" fill="none" xmlns="http://www.w3.org/2000/svg">
<path d="M16.5 30.25C24.0939 30.25 30.25 24.0939 30.25 16.5C30.25 8.90608 24.0939 2.75 16.5 2.75C8.90608 2.75 2.75 8.90608 2.75 16.5C2.75 24.0939 8.90608 30.25 16.5 30.25Z" stroke="#292D32" stroke-width="2" stroke-linecap="round" stroke-linejoin="round"/>
<path d="M11 4.125H12.375C9.6937 12.155 9.6937 20.845 12.375 28.875H11" stroke="#292D32" stroke-width="2" stroke-linecap="round" stroke-linejoin="round"/>
<path d="M20.625 4.125C23.3063 12.155 23.3063 20.845 20.625 28.875" stroke="#292D32" stroke-width="2" stroke-linecap="round" stroke-linejoin="round"/>
<path d="M4.125 22V20.625C12.155 23.3063 20.845 23.3063 28.875 20.625V22" stroke="#292D32" stroke-width="2" stroke-linecap="round" stroke-linejoin="round"/>
<path d="M4.125 12.375C12.155 9.6937 20.845 9.6937 28.875 12.375" stroke="#292D32" stroke-width="2" stroke-linecap="round" stroke-linejoin="round"/>
</svg>
