<svg width="58" height="32" viewBox="0 0 58 32" fill="none" xmlns="http://www.w3.org/2000/svg">
<rect width="32" height="32" rx="5" fill="#060606"/>
<path d="M15.2736 21.1623C12.4423 21.1623 10.1472 18.8671 10.1472 16.0358C10.1472 13.2045 12.4423 10.9094 15.2736 10.9094C17.5097 10.9094 19.4098 12.3408 20.111 14.3375L23.1108 15.3286C22.7636 11.3053 19.3876 8.14819 15.2736 8.14819C10.9287 8.14819 7.40735 11.6704 7.40735 16.0144C7.40735 20.3593 10.9296 23.8815 15.2736 23.8815C18.86 23.8815 21.8862 21.4812 22.8328 18.1993L20.2324 17.3399C19.6552 19.5392 17.6542 21.1623 15.2736 21.1623Z" fill="white"/>
<path d="M27.1584 18.593L18.3586 15.6857L17.4761 18.3569L26.2759 21.2642L27.1584 18.593Z" fill="white"/>
<path d="M41.7614 8.45455V23H38.6861V8.45455H41.7614ZM49.4478 23H44.2915V8.45455H49.4904C50.9535 8.45455 52.2129 8.74574 53.2688 9.32812C54.3247 9.90578 55.1367 10.7367 55.7049 11.821C56.2778 12.9053 56.5643 14.2027 56.5643 15.7131C56.5643 17.2282 56.2778 18.5303 55.7049 19.6193C55.1367 20.7083 54.32 21.544 53.2546 22.1264C52.194 22.7088 50.9251 23 49.4478 23ZM47.3668 20.3651H49.32C50.229 20.3651 50.9937 20.2041 51.614 19.8821C52.239 19.5554 52.7077 19.0511 53.0202 18.3693C53.3375 17.6828 53.4961 16.7973 53.4961 15.7131C53.4961 14.6383 53.3375 13.7599 53.0202 13.0781C52.7077 12.3963 52.2414 11.8944 51.6211 11.5724C51.0008 11.2505 50.2362 11.0895 49.3271 11.0895H47.3668V20.3651Z" fill="#060606"/>
</svg>
