<svg width="33" height="33" viewBox="0 0 33 33" fill="none" xmlns="http://www.w3.org/2000/svg">
<path d="M14.7812 3.36869C15.7437 2.55744 17.2975 2.55744 18.2325 3.36869L20.405 5.22494C20.8175 5.56869 21.6012 5.85744 22.1512 5.85744H24.4887C25.9462 5.85744 27.1425 7.05369 27.1425 8.51119V10.8487C27.1425 11.3987 27.4312 12.1687 27.775 12.5812L29.6312 14.7537C30.4425 15.7162 30.4425 17.2699 29.6312 18.2049L27.775 20.3774C27.4312 20.7899 27.1425 21.5599 27.1425 22.1099V24.4474C27.1425 25.9049 25.9462 27.1012 24.4887 27.1012H22.1512C21.6012 27.1012 20.8312 27.3899 20.4187 27.7337L18.2462 29.5899C17.2837 30.4012 15.73 30.4012 14.795 29.5899L12.6225 27.7337C12.21 27.3899 11.4262 27.1012 10.89 27.1012H8.48371C7.02621 27.1012 5.82996 25.9049 5.82996 24.4474V22.0962C5.82996 21.5599 5.55496 20.7762 5.21121 20.3774L3.35496 18.1912C2.55746 17.2424 2.55746 15.7024 3.35496 14.7537L5.21121 12.5674C5.55496 12.1549 5.82996 11.3849 5.82996 10.8487V8.52494C5.82996 7.06744 7.02621 5.87119 8.48371 5.87119H10.8625C11.4125 5.87119 12.1825 5.58244 12.595 5.23869L14.7812 3.36869Z" stroke="#292D32" stroke-width="2" stroke-linecap="round" stroke-linejoin="round"/>
<path d="M16.5 11.1787V17.82" stroke="#292D32" stroke-width="2" stroke-linecap="round" stroke-linejoin="round"/>
<path d="M16.4924 22H16.5048" stroke="#292D32" stroke-width="2" stroke-linecap="round" stroke-linejoin="round"/>
</svg>
