<svg width="20" height="21" viewBox="0 0 20 21" fill="none" xmlns="http://www.w3.org/2000/svg">
<path d="M15.6 17.844H13.2C12.3163 17.844 11.6 17.1276 11.6 16.244V13.844C11.6 12.9603 12.3163 12.244 13.2 12.244H15.6C16.4837 12.244 17.2 12.9603 17.2 13.844V16.244C17.2 17.1276 16.4837 17.844 15.6 17.844Z" stroke="#787878" stroke-width="1.5" stroke-linecap="round" stroke-linejoin="round"/>
<path d="M6.80005 17.844H4.40005C3.51639 17.844 2.80005 17.1276 2.80005 16.244V13.844C2.80005 12.9603 3.51639 12.244 4.40005 12.244H6.80005C7.68371 12.244 8.40005 12.9603 8.40005 13.844V16.244C8.40005 17.1276 7.68371 17.844 6.80005 17.844Z" stroke="#787878" stroke-width="1.5" stroke-linecap="round" stroke-linejoin="round"/>
<path d="M15.6 9.04395H13.2C12.3163 9.04395 11.6 8.32763 11.6 7.44395V5.04394C11.6 4.16026 12.3163 3.44394 13.2 3.44394H15.6C16.4837 3.44394 17.2 4.16026 17.2 5.04394V7.44395C17.2 8.32763 16.4837 9.04395 15.6 9.04395Z" stroke="#787878" stroke-width="1.5" stroke-linecap="round" stroke-linejoin="round"/>
<path d="M6.80005 9.04395H4.40005C3.51639 9.04395 2.80005 8.32763 2.80005 7.44395V5.04394C2.80005 4.16026 3.51639 3.44394 4.40005 3.44394H6.80005C7.68371 3.44394 8.40005 4.16026 8.40005 5.04394V7.44395C8.40005 8.32763 7.68371 9.04395 6.80005 9.04395Z" stroke="#787878" stroke-width="1.5" stroke-linecap="round" stroke-linejoin="round"/>
</svg>
