<svg width="25" height="25" viewBox="0 0 25 25" fill="none" xmlns="http://www.w3.org/2000/svg">
<g clip-path="url(#clip0_1051_1609)">
<path d="M20 0H5C2.23858 0 0 2.23858 0 5V20C0 22.7614 2.23858 25 5 25H20C22.7614 25 25 22.7614 25 20V5C25 2.23858 22.7614 0 20 0Z" fill="#00ACEE"/>
<path d="M9.27002 18.3202V6.68018H13.63C14.52 6.68018 15.27 6.85018 15.88 7.18018C16.49 7.51018 16.95 7.97018 17.26 8.56018C17.57 9.14018 17.73 9.80018 17.73 10.5402C17.73 11.2802 17.57 11.9502 17.26 12.5302C16.95 13.1102 16.48 13.5702 15.87 13.9002C15.26 14.2302 14.5 14.3902 13.6 14.3902H10.71V12.6602H13.32C13.84 12.6602 14.27 12.5702 14.6 12.3902C14.93 12.2102 15.18 11.9602 15.34 11.6402C15.5 11.3202 15.58 10.9602 15.58 10.5402C15.58 10.1202 15.5 9.76018 15.34 9.45018C15.18 9.14018 14.93 8.89018 14.6 8.72018C14.27 8.54018 13.84 8.45018 13.31 8.45018H11.38V18.3302H9.27002V18.3202Z" fill="white"/>
</g>
<defs>
<clipPath id="clip0_1051_1609">
<rect width="25" height="25" fill="white"/>
</clipPath>
</defs>
</svg>
