<svg width="12" height="18" viewBox="0 0 12 18" fill="none" xmlns="http://www.w3.org/2000/svg">
<path d="M9.33317 0.666748C8.67013 0.666748 8.03424 0.93014 7.5654 1.39898C7.09656 1.86782 6.83317 2.50371 6.83317 3.16675V14.8334C6.83317 15.4965 7.09656 16.1323 7.5654 16.6012C8.03424 17.07 8.67013 17.3334 9.33317 17.3334C9.99621 17.3334 10.6321 17.07 11.1009 16.6012C11.5698 16.1323 11.8332 15.4965 11.8332 14.8334V3.16675C11.8332 2.50371 11.5698 1.86782 11.1009 1.39898C10.6321 0.93014 9.99621 0.666748 9.33317 0.666748ZM2.6665 0.666748C2.00346 0.666748 1.36758 0.93014 0.898737 1.39898C0.429896 1.86782 0.166504 2.50371 0.166504 3.16675V14.8334C0.166504 15.4965 0.429896 16.1323 0.898737 16.6012C1.36758 17.07 2.00346 17.3334 2.6665 17.3334C3.32955 17.3334 3.96543 17.07 4.43427 16.6012C4.90311 16.1323 5.1665 15.4965 5.1665 14.8334V3.16675C5.1665 2.50371 4.90311 1.86782 4.43427 1.39898C3.96543 0.93014 3.32955 0.666748 2.6665 0.666748Z" fill="#595959"/>
</svg>
