<svg width="12" height="16" viewBox="0 0 12 16" fill="none" xmlns="http://www.w3.org/2000/svg">
<path d="M6.09091 15.0606C8.83581 15.0606 11.0908 12.8854 11.0908 10.0933C11.0908 9.4079 11.056 8.67313 10.6761 7.53116C10.2961 6.38923 10.2196 6.24183 9.81788 5.5366C9.64625 6.97576 8.72791 7.57556 8.49461 7.75483C8.49461 7.56833 7.93908 5.50593 7.09678 4.27193C6.26991 3.06063 5.14538 2.26593 4.48601 1.72729C4.48601 2.75055 4.19821 4.27193 3.78605 5.0471C3.37388 5.82226 3.29648 5.8505 2.78165 6.42736C2.26685 7.00423 2.03055 7.18239 1.60005 7.88233C1.16957 8.58229 1.09091 9.51456 1.09091 10.2C1.09091 12.992 3.34601 15.0606 6.09091 15.0606Z" stroke="white" stroke-width="1.5" stroke-linejoin="round"/>
</svg>
