<svg width="24" height="24" viewBox="0 0 24 24" fill="none" xmlns="http://www.w3.org/2000/svg">
<path fill-rule="evenodd" clip-rule="evenodd" d="M9.65191 22.4227L8.9733 20.8453C8.73151 20.2824 8.32316 19.8132 7.807 19.5053C7.29055 19.1975 6.6931 19.0663 6.10014 19.1307L4.43972 19.3133C3.9455 19.367 3.44682 19.2716 3.004 19.0385C2.56118 18.8054 2.1932 18.4447 1.94458 18C1.69589 17.5554 1.57741 17.0457 1.60352 16.5328C1.62963 16.0199 1.7992 15.5259 2.09166 15.1107L3.07475 13.7147C3.42534 13.2164 3.61414 12.6161 3.61403 12C3.61414 11.3839 3.42534 10.7836 3.07475 10.2853L2.09166 8.88933C1.7992 8.47411 1.62963 7.98008 1.60352 7.46721C1.57741 6.95433 1.69589 6.44465 1.94458 6C2.19296 5.55508 2.56089 5.19419 3.00377 4.96107C3.44666 4.72796 3.94547 4.63264 4.43972 4.68667L6.1053 4.86933C6.69826 4.93369 7.29571 4.80255 7.81216 4.49467C8.3264 4.1859 8.73286 3.71683 8.9733 3.15467L9.65191 1.57733C9.85365 1.10781 10.1829 0.708858 10.5997 0.428879C11.0164 0.148899 11.5029 -8.38284e-05 12 3.53863e-08C12.4971 -8.38284e-05 12.9835 0.148899 13.4003 0.428879C13.8171 0.708858 14.1463 1.10781 14.348 1.57733L15.0318 3.15467C15.2723 3.71683 15.6787 4.1859 16.1929 4.49467C16.7094 4.80255 17.3069 4.93369 17.8998 4.86933L19.5602 4.68667C20.0545 4.63264 20.5533 4.72796 20.9962 4.96107C21.4391 5.19419 21.807 5.55508 22.0554 6C22.3041 6.44465 22.4225 6.95433 22.3964 7.46721C22.3703 7.98008 22.2008 8.47411 21.9083 8.88933L20.9252 10.2853C20.5746 10.7836 20.3858 11.3839 20.3859 12C20.3829 12.6178 20.57 13.2206 20.92 13.7213L21.9031 15.1173C22.1956 15.5326 22.3652 16.0266 22.3913 16.5395C22.4174 17.0523 22.2989 17.562 22.0502 18.0067C21.8018 18.4516 21.4339 18.8125 20.991 19.0456C20.5481 19.2787 20.0493 19.374 19.5551 19.32L17.8947 19.1373C17.3017 19.073 16.7042 19.2041 16.1878 19.512C15.6746 19.819 15.2682 20.2856 15.0267 20.8453L14.348 22.4227C14.1463 22.8922 13.8171 23.2911 13.4003 23.5711C12.9835 23.8511 12.4971 24.0001 12 24C11.5029 24.0001 11.0164 23.8511 10.5997 23.5711C10.1829 23.2911 9.85365 22.8922 9.65191 22.4227ZM11.9979 15.6C13.9217 15.6 15.4813 13.9882 15.4813 12C15.4813 10.0118 13.9217 8.4 11.9979 8.4C10.0741 8.4 8.51451 10.0118 8.51451 12C8.51451 13.9882 10.0741 15.6 11.9979 15.6Z" fill="black"/>
</svg>
